<?xml version="1.0" encoding="UTF-8" standalone="no"?>
<!DOCTYPE svg PUBLIC "-//W3C//DTD SVG 1.1//EN" "http://www.w3.org/Graphics/SVG/1.1/DTD/svg11.dtd">
<svg width="100%" height="100%" viewBox="0 0 64 64" version="1.1" xmlns="http://www.w3.org/2000/svg" xmlns:xlink="http://www.w3.org/1999/xlink" xml:space="preserve" xmlns:serif="http://www.serif.com/" style="fill-rule:evenodd;clip-rule:evenodd;stroke-linejoin:round;stroke-miterlimit:1.5;">
    <rect id="ArtBoard1" x="0" y="0" width="64" height="64" style="fill:none;"/>
    <clipPath id="_clip1">
        <rect id="ArtBoard11" serif:id="ArtBoard1" x="0" y="0" width="64" height="64"/>
    </clipPath>
    <g clip-path="url(#_clip1)">
        <g transform="matrix(1.04043,0,0,1.08938,-1.61003,-3.53062)">
            <path d="M61.295,9.322C61.295,6.787 59.144,4.732 56.49,4.732C45.53,4.732 18.789,4.732 7.829,4.732C5.175,4.732 3.024,6.787 3.024,9.322L3.024,37.498C3.024,39.266 3.912,40.926 5.411,41.961C15.648,49.056 27.127,57.449 32.731,61.523C32.731,61.523 52.348,46.958 59.068,41.969C60.473,40.925 61.295,39.32 61.295,37.62C61.295,31.569 61.295,16.845 61.295,9.322Z" style="fill:rgb(235,235,235);stroke:black;stroke-width:0.95px;"/>
        </g>
        <g transform="matrix(1,0,0,1,-1,0)">
            <text x="25.672px" y="56.411px" style="font-family:'ArialMT', 'Arial', sans-serif;font-size:24px;">1</text>
        </g>
        <text x="7.562px" y="26.287px" style="font-family:'ArialMT', 'Arial', sans-serif;font-size:24px;">H</text>
        <text x="40.21px" y="26.423px" style="font-family:'ArialMT', 'Arial', sans-serif;font-size:24px;">2</text>
    </g>
</svg>
